<?xml version="1.0" encoding="utf-8" standalone="no"?>
<!DOCTYPE svg PUBLIC "-//W3C//DTD SVG 1.1//EN"
  "http://www.w3.org/Graphics/SVG/1.1/DTD/svg11.dtd">
<!-- Created with matplotlib (http://matplotlib.org/) -->
<svg height="496.77pt" version="1.1" viewBox="0 0 913.753125 496.77" width="913.753125pt" xmlns="http://www.w3.org/2000/svg" xmlns:xlink="http://www.w3.org/1999/xlink">
 <defs>
  <style type="text/css">
*{stroke-linecap:butt;stroke-linejoin:round;}
  </style>
 </defs>
 <g id="figure_1">
  <g id="patch_1">
   <path d="M 0 496.77 
L 913.753125 496.77 
L 913.753125 0 
L 0 0 
z
" style="fill:#ffffff;"/>
  </g>
  <g id="axes_1">
   <g id="patch_2">
    <path clip-path="url(#p670b8eb0c4)" d="M 69.401125 459.21375 
L 96.185125 459.21375 
L 96.185125 279.219255 
L 69.401125 279.219255 
z
" style="fill:#ea96a3;"/>
   </g>
   <g id="patch_3">
    <path clip-path="url(#p670b8eb0c4)" d="M 102.881125 459.21375 
L 129.665125 459.21375 
L 129.665125 242.986989 
L 102.881125 242.986989 
z
" style="fill:#e8968c;"/>
   </g>
   <g id="patch_4">
    <path clip-path="url(#p670b8eb0c4)" d="M 136.361125 459.21375 
L 163.145125 459.21375 
L 163.145125 191.481594 
L 136.361125 191.481594 
z
" style="fill:#e2925a;"/>
   </g>
   <g id="patch_5">
    <path clip-path="url(#p670b8eb0c4)" d="M 169.841125 459.21375 
L 196.625125 459.21375 
L 196.625125 247.694972 
L 169.841125 247.694972 
z
" style="fill:#cd974c;"/>
   </g>
   <g id="patch_6">
    <path clip-path="url(#p670b8eb0c4)" d="M 203.321125 459.21375 
L 230.105125 459.21375 
L 230.105125 268.623105 
L 203.321125 268.623105 
z
" style="fill:#bb9b49;"/>
   </g>
   <g id="patch_7">
    <path clip-path="url(#p670b8eb0c4)" d="M 236.801125 459.21375 
L 263.585125 459.21375 
L 263.585125 191.970994 
L 236.801125 191.970994 
z
" style="fill:#ab9e47;"/>
   </g>
   <g id="patch_8">
    <path clip-path="url(#p670b8eb0c4)" d="M 270.281125 459.21375 
L 297.065125 459.21375 
L 297.065125 135.658929 
L 270.281125 135.658929 
z
" style="fill:#9ca146;"/>
   </g>
   <g id="patch_9">
    <path clip-path="url(#p670b8eb0c4)" d="M 303.761125 459.21375 
L 330.545125 459.21375 
L 330.545125 121.687109 
L 303.761125 121.687109 
z
" style="fill:#8ba646;"/>
   </g>
   <g id="patch_10">
    <path clip-path="url(#p670b8eb0c4)" d="M 337.241125 459.21375 
L 364.025125 459.21375 
L 364.025125 114.82452 
L 337.241125 114.82452 
z
" style="fill:#6fac47;"/>
   </g>
   <g id="patch_11">
    <path clip-path="url(#p670b8eb0c4)" d="M 370.721125 459.21375 
L 397.505125 459.21375 
L 397.505125 107.29265 
L 370.721125 107.29265 
z
" style="fill:#48b062;"/>
   </g>
   <g id="patch_12">
    <path clip-path="url(#p670b8eb0c4)" d="M 404.201125 459.21375 
L 430.985125 459.21375 
L 430.985125 71.891308 
L 404.201125 71.891308 
z
" style="fill:#49ae83;"/>
   </g>
   <g id="patch_13">
    <path clip-path="url(#p670b8eb0c4)" d="M 437.681125 459.21375 
L 464.465125 459.21375 
L 464.465125 95.60719 
L 437.681125 95.60719 
z
" style="fill:#4aad93;"/>
   </g>
   <g id="patch_14">
    <path clip-path="url(#p670b8eb0c4)" d="M 471.161125 459.21375 
L 497.945125 459.21375 
L 497.945125 110.72261 
L 471.161125 110.72261 
z
" style="fill:#4bac9f;"/>
   </g>
   <g id="patch_15">
    <path clip-path="url(#p670b8eb0c4)" d="M 504.641125 459.21375 
L 531.425125 459.21375 
L 531.425125 95.477718 
L 504.641125 95.477718 
z
" style="fill:#4baba9;"/>
   </g>
   <g id="patch_16">
    <path clip-path="url(#p670b8eb0c4)" d="M 538.121125 459.21375 
L 564.905125 459.21375 
L 564.905125 105.30007 
L 538.121125 105.30007 
z
" style="fill:#4eabb5;"/>
   </g>
   <g id="patch_17">
    <path clip-path="url(#p670b8eb0c4)" d="M 571.601125 459.21375 
L 598.385125 459.21375 
L 598.385125 136.170395 
L 571.601125 136.170395 
z
" style="fill:#50acc3;"/>
   </g>
   <g id="patch_18">
    <path clip-path="url(#p670b8eb0c4)" d="M 605.081125 459.21375 
L 631.865125 459.21375 
L 631.865125 284.72267 
L 605.081125 284.72267 
z
" style="fill:#55acd5;"/>
   </g>
   <g id="patch_19">
    <path clip-path="url(#p670b8eb0c4)" d="M 638.561125 459.21375 
L 665.345125 459.21375 
L 665.345125 243.257547 
L 638.561125 243.257547 
z
" style="fill:#7faee5;"/>
   </g>
   <g id="patch_20">
    <path clip-path="url(#p670b8eb0c4)" d="M 672.041125 459.21375 
L 698.825125 459.21375 
L 698.825125 158.076601 
L 672.041125 158.076601 
z
" style="fill:#a4acea;"/>
   </g>
   <g id="patch_21">
    <path clip-path="url(#p670b8eb0c4)" d="M 705.521125 459.21375 
L 732.305125 459.21375 
L 732.305125 172.660931 
L 705.521125 172.660931 
z
" style="fill:#bba5ea;"/>
   </g>
   <g id="patch_22">
    <path clip-path="url(#p670b8eb0c4)" d="M 739.001125 459.21375 
L 765.785125 459.21375 
L 765.785125 147.42664 
L 739.001125 147.42664 
z
" style="fill:#ce9be9;"/>
   </g>
   <g id="patch_23">
    <path clip-path="url(#p670b8eb0c4)" d="M 772.481125 459.21375 
L 799.265125 459.21375 
L 799.265125 198.105559 
L 772.481125 198.105559 
z
" style="fill:#e28ce7;"/>
   </g>
   <g id="patch_24">
    <path clip-path="url(#p670b8eb0c4)" d="M 805.961125 459.21375 
L 832.745125 459.21375 
L 832.745125 159.154088 
L 805.961125 159.154088 
z
" style="fill:#e78dd5;"/>
   </g>
   <g id="patch_25">
    <path clip-path="url(#p670b8eb0c4)" d="M 839.441125 459.21375 
L 866.225125 459.21375 
L 866.225125 142.845082 
L 839.441125 142.845082 
z
" style="fill:#e890c4;"/>
   </g>
   <g id="patch_26">
    <path clip-path="url(#p670b8eb0c4)" d="M 872.921125 459.21375 
L 899.705125 459.21375 
L 899.705125 231.946364 
L 872.921125 231.946364 
z
" style="fill:#e993b5;"/>
   </g>
   <g id="line2d_1">
    <path clip-path="url(#p670b8eb0c4)" d="M 82.793125 293.346661 
L 82.793125 263.747667 
" style="fill:none;stroke:#424242;stroke-linecap:square;stroke-width:2.7;"/>
   </g>
   <g id="line2d_2">
    <path clip-path="url(#p670b8eb0c4)" d="M 116.273125 256.930445 
L 116.273125 229.997299 
" style="fill:none;stroke:#424242;stroke-linecap:square;stroke-width:2.7;"/>
   </g>
   <g id="line2d_3">
    <path clip-path="url(#p670b8eb0c4)" d="M 149.753125 204.787969 
L 149.753125 178.153533 
" style="fill:none;stroke:#424242;stroke-linecap:square;stroke-width:2.7;"/>
   </g>
   <g id="line2d_4">
    <path clip-path="url(#p670b8eb0c4)" d="M 183.233125 258.489524 
L 183.233125 237.367605 
" style="fill:none;stroke:#424242;stroke-linecap:square;stroke-width:2.7;"/>
   </g>
   <g id="line2d_5">
    <path clip-path="url(#p670b8eb0c4)" d="M 216.713125 279.703088 
L 216.713125 256.228304 
" style="fill:none;stroke:#424242;stroke-linecap:square;stroke-width:2.7;"/>
   </g>
   <g id="line2d_6">
    <path clip-path="url(#p670b8eb0c4)" d="M 250.193125 206.81669 
L 250.193125 177.498599 
" style="fill:none;stroke:#424242;stroke-linecap:square;stroke-width:2.7;"/>
   </g>
   <g id="line2d_7">
    <path clip-path="url(#p670b8eb0c4)" d="M 283.673125 153.356239 
L 283.673125 117.300079 
" style="fill:none;stroke:#424242;stroke-linecap:square;stroke-width:2.7;"/>
   </g>
   <g id="line2d_8">
    <path clip-path="url(#p670b8eb0c4)" d="M 317.153125 149.459342 
L 317.153125 93.066568 
" style="fill:none;stroke:#424242;stroke-linecap:square;stroke-width:2.7;"/>
   </g>
   <g id="line2d_9">
    <path clip-path="url(#p670b8eb0c4)" d="M 350.633125 134.84175 
L 350.633125 94.132798 
" style="fill:none;stroke:#424242;stroke-linecap:square;stroke-width:2.7;"/>
   </g>
   <g id="line2d_10">
    <path clip-path="url(#p670b8eb0c4)" d="M 384.113125 125.979866 
L 384.113125 89.339714 
" style="fill:none;stroke:#424242;stroke-linecap:square;stroke-width:2.7;"/>
   </g>
   <g id="line2d_11">
    <path clip-path="url(#p670b8eb0c4)" d="M 417.593125 94.280401 
L 417.593125 45.042321 
" style="fill:none;stroke:#424242;stroke-linecap:square;stroke-width:2.7;"/>
   </g>
   <g id="line2d_12">
    <path clip-path="url(#p670b8eb0c4)" d="M 451.073125 123.926535 
L 451.073125 65.791636 
" style="fill:none;stroke:#424242;stroke-linecap:square;stroke-width:2.7;"/>
   </g>
   <g id="line2d_13">
    <path clip-path="url(#p670b8eb0c4)" d="M 484.553125 124.599717 
L 484.553125 94.293224 
" style="fill:none;stroke:#424242;stroke-linecap:square;stroke-width:2.7;"/>
   </g>
   <g id="line2d_14">
    <path clip-path="url(#p670b8eb0c4)" d="M 518.033125 111.007015 
L 518.033125 80.21842 
" style="fill:none;stroke:#424242;stroke-linecap:square;stroke-width:2.7;"/>
   </g>
   <g id="line2d_15">
    <path clip-path="url(#p670b8eb0c4)" d="M 551.513125 121.754381 
L 551.513125 88.104125 
" style="fill:none;stroke:#424242;stroke-linecap:square;stroke-width:2.7;"/>
   </g>
   <g id="line2d_16">
    <path clip-path="url(#p670b8eb0c4)" d="M 584.993125 151.222908 
L 584.993125 121.819181 
" style="fill:none;stroke:#424242;stroke-linecap:square;stroke-width:2.7;"/>
   </g>
   <g id="line2d_17">
    <path clip-path="url(#p670b8eb0c4)" d="M 618.473125 293.175521 
L 618.473125 276.130954 
" style="fill:none;stroke:#424242;stroke-linecap:square;stroke-width:2.7;"/>
   </g>
   <g id="line2d_18">
    <path clip-path="url(#p670b8eb0c4)" d="M 651.953125 256.6154 
L 651.953125 228.982884 
" style="fill:none;stroke:#424242;stroke-linecap:square;stroke-width:2.7;"/>
   </g>
   <g id="line2d_19">
    <path clip-path="url(#p670b8eb0c4)" d="M 685.433125 186.114889 
L 685.433125 128.92514 
" style="fill:none;stroke:#424242;stroke-linecap:square;stroke-width:2.7;"/>
   </g>
   <g id="line2d_20">
    <path clip-path="url(#p670b8eb0c4)" d="M 718.913125 187.680104 
L 718.913125 155.454396 
" style="fill:none;stroke:#424242;stroke-linecap:square;stroke-width:2.7;"/>
   </g>
   <g id="line2d_21">
    <path clip-path="url(#p670b8eb0c4)" d="M 752.393125 158.713721 
L 752.393125 135.080774 
" style="fill:none;stroke:#424242;stroke-linecap:square;stroke-width:2.7;"/>
   </g>
   <g id="line2d_22">
    <path clip-path="url(#p670b8eb0c4)" d="M 785.873125 216.32446 
L 785.873125 179.776863 
" style="fill:none;stroke:#424242;stroke-linecap:square;stroke-width:2.7;"/>
   </g>
   <g id="line2d_23">
    <path clip-path="url(#p670b8eb0c4)" d="M 819.353125 176.466855 
L 819.353125 142.586062 
" style="fill:none;stroke:#424242;stroke-linecap:square;stroke-width:2.7;"/>
   </g>
   <g id="line2d_24">
    <path clip-path="url(#p670b8eb0c4)" d="M 852.833125 154.439011 
L 852.833125 131.055092 
" style="fill:none;stroke:#424242;stroke-linecap:square;stroke-width:2.7;"/>
   </g>
   <g id="line2d_25">
    <path clip-path="url(#p670b8eb0c4)" d="M 886.313125 254.735155 
L 886.313125 207.948842 
" style="fill:none;stroke:#424242;stroke-linecap:square;stroke-width:2.7;"/>
   </g>
   <g id="text_1">
    <!-- Średni budżet na panel -->
    <defs>
     <path d="M 34.96875 92.78125 
L 44 92.78125 
L 32.859375 79.890625 
L 25.390625 79.890625 
z
M 53.515625 70.515625 
L 53.515625 60.890625 
Q 47.90625 63.578125 42.921875 64.890625 
Q 37.9375 66.21875 33.296875 66.21875 
Q 25.25 66.21875 20.875 63.09375 
Q 16.5 59.96875 16.5 54.203125 
Q 16.5 49.359375 19.40625 46.890625 
Q 22.3125 44.4375 30.421875 42.921875 
L 36.375 41.703125 
Q 47.40625 39.59375 52.65625 34.296875 
Q 57.90625 29 57.90625 20.125 
Q 57.90625 9.515625 50.796875 4.046875 
Q 43.703125 -1.421875 29.984375 -1.421875 
Q 24.8125 -1.421875 18.96875 -0.25 
Q 13.140625 0.921875 6.890625 3.21875 
L 6.890625 13.375 
Q 12.890625 10.015625 18.65625 8.296875 
Q 24.421875 6.59375 29.984375 6.59375 
Q 38.421875 6.59375 43.015625 9.90625 
Q 47.609375 13.234375 47.609375 19.390625 
Q 47.609375 24.75 44.3125 27.78125 
Q 41.015625 30.8125 33.5 32.328125 
L 27.484375 33.5 
Q 16.453125 35.6875 11.515625 40.375 
Q 6.59375 45.0625 6.59375 53.421875 
Q 6.59375 63.09375 13.40625 68.65625 
Q 20.21875 74.21875 32.171875 74.21875 
Q 37.3125 74.21875 42.625 73.28125 
Q 47.953125 72.359375 53.515625 70.515625 
z
" id="DejaVuSans-15a"/>
     <path d="M 41.109375 46.296875 
Q 39.59375 47.171875 37.8125 47.578125 
Q 36.03125 48 33.890625 48 
Q 26.265625 48 22.1875 43.046875 
Q 18.109375 38.09375 18.109375 28.8125 
L 18.109375 0 
L 9.078125 0 
L 9.078125 54.6875 
L 18.109375 54.6875 
L 18.109375 46.1875 
Q 20.953125 51.171875 25.484375 53.578125 
Q 30.03125 56 36.53125 56 
Q 37.453125 56 38.578125 55.875 
Q 39.703125 55.765625 41.0625 55.515625 
z
" id="DejaVuSans-72"/>
     <path d="M 56.203125 29.59375 
L 56.203125 25.203125 
L 14.890625 25.203125 
Q 15.484375 15.921875 20.484375 11.0625 
Q 25.484375 6.203125 34.421875 6.203125 
Q 39.59375 6.203125 44.453125 7.46875 
Q 49.3125 8.734375 54.109375 11.28125 
L 54.109375 2.78125 
Q 49.265625 0.734375 44.1875 -0.34375 
Q 39.109375 -1.421875 33.890625 -1.421875 
Q 20.796875 -1.421875 13.15625 6.1875 
Q 5.515625 13.8125 5.515625 26.8125 
Q 5.515625 40.234375 12.765625 48.109375 
Q 20.015625 56 32.328125 56 
Q 43.359375 56 49.78125 48.890625 
Q 56.203125 41.796875 56.203125 29.59375 
z
M 47.21875 32.234375 
Q 47.125 39.59375 43.09375 43.984375 
Q 39.0625 48.390625 32.421875 48.390625 
Q 24.90625 48.390625 20.390625 44.140625 
Q 15.875 39.890625 15.1875 32.171875 
z
" id="DejaVuSans-65"/>
     <path d="M 45.40625 46.390625 
L 45.40625 75.984375 
L 54.390625 75.984375 
L 54.390625 0 
L 45.40625 0 
L 45.40625 8.203125 
Q 42.578125 3.328125 38.25 0.953125 
Q 33.9375 -1.421875 27.875 -1.421875 
Q 17.96875 -1.421875 11.734375 6.484375 
Q 5.515625 14.40625 5.515625 27.296875 
Q 5.515625 40.1875 11.734375 48.09375 
Q 17.96875 56 27.875 56 
Q 33.9375 56 38.25 53.625 
Q 42.578125 51.265625 45.40625 46.390625 
z
M 14.796875 27.296875 
Q 14.796875 17.390625 18.875 11.75 
Q 22.953125 6.109375 30.078125 6.109375 
Q 37.203125 6.109375 41.296875 11.75 
Q 45.40625 17.390625 45.40625 27.296875 
Q 45.40625 37.203125 41.296875 42.84375 
Q 37.203125 48.484375 30.078125 48.484375 
Q 22.953125 48.484375 18.875 42.84375 
Q 14.796875 37.203125 14.796875 27.296875 
z
" id="DejaVuSans-64"/>
     <path d="M 54.890625 33.015625 
L 54.890625 0 
L 45.90625 0 
L 45.90625 32.71875 
Q 45.90625 40.484375 42.875 44.328125 
Q 39.84375 48.1875 33.796875 48.1875 
Q 26.515625 48.1875 22.3125 43.546875 
Q 18.109375 38.921875 18.109375 30.90625 
L 18.109375 0 
L 9.078125 0 
L 9.078125 54.6875 
L 18.109375 54.6875 
L 18.109375 46.1875 
Q 21.34375 51.125 25.703125 53.5625 
Q 30.078125 56 35.796875 56 
Q 45.21875 56 50.046875 50.171875 
Q 54.890625 44.34375 54.890625 33.015625 
z
" id="DejaVuSans-6e"/>
     <path d="M 9.421875 54.6875 
L 18.40625 54.6875 
L 18.40625 0 
L 9.421875 0 
z
M 9.421875 75.984375 
L 18.40625 75.984375 
L 18.40625 64.59375 
L 9.421875 64.59375 
z
" id="DejaVuSans-69"/>
     <path id="DejaVuSans-20"/>
     <path d="M 48.6875 27.296875 
Q 48.6875 37.203125 44.609375 42.84375 
Q 40.53125 48.484375 33.40625 48.484375 
Q 26.265625 48.484375 22.1875 42.84375 
Q 18.109375 37.203125 18.109375 27.296875 
Q 18.109375 17.390625 22.1875 11.75 
Q 26.265625 6.109375 33.40625 6.109375 
Q 40.53125 6.109375 44.609375 11.75 
Q 48.6875 17.390625 48.6875 27.296875 
z
M 18.109375 46.390625 
Q 20.953125 51.265625 25.265625 53.625 
Q 29.59375 56 35.59375 56 
Q 45.5625 56 51.78125 48.09375 
Q 58.015625 40.1875 58.015625 27.296875 
Q 58.015625 14.40625 51.78125 6.484375 
Q 45.5625 -1.421875 35.59375 -1.421875 
Q 29.59375 -1.421875 25.265625 0.953125 
Q 20.953125 3.328125 18.109375 8.203125 
L 18.109375 0 
L 9.078125 0 
L 9.078125 75.984375 
L 18.109375 75.984375 
z
" id="DejaVuSans-62"/>
     <path d="M 8.5 21.578125 
L 8.5 54.6875 
L 17.484375 54.6875 
L 17.484375 21.921875 
Q 17.484375 14.15625 20.5 10.265625 
Q 23.53125 6.390625 29.59375 6.390625 
Q 36.859375 6.390625 41.078125 11.03125 
Q 45.3125 15.671875 45.3125 23.6875 
L 45.3125 54.6875 
L 54.296875 54.6875 
L 54.296875 0 
L 45.3125 0 
L 45.3125 8.40625 
Q 42.046875 3.421875 37.71875 1 
Q 33.40625 -1.421875 27.6875 -1.421875 
Q 18.265625 -1.421875 13.375 4.4375 
Q 8.5 10.296875 8.5 21.578125 
z
M 31.109375 56 
z
" id="DejaVuSans-75"/>
     <path d="M 21.53125 75.984375 
L 30.515625 75.984375 
L 30.515625 64.59375 
L 21.53125 64.59375 
z
M 26.125 56 
z
M 5.515625 54.6875 
L 48.1875 54.6875 
L 48.1875 46.484375 
L 14.40625 7.171875 
L 48.1875 7.171875 
L 48.1875 0 
L 4.296875 0 
L 4.296875 8.203125 
L 38.09375 47.515625 
L 5.515625 47.515625 
z
" id="DejaVuSans-17c"/>
     <path d="M 18.3125 70.21875 
L 18.3125 54.6875 
L 36.8125 54.6875 
L 36.8125 47.703125 
L 18.3125 47.703125 
L 18.3125 18.015625 
Q 18.3125 11.328125 20.140625 9.421875 
Q 21.96875 7.515625 27.59375 7.515625 
L 36.8125 7.515625 
L 36.8125 0 
L 27.59375 0 
Q 17.1875 0 13.234375 3.875 
Q 9.28125 7.765625 9.28125 18.015625 
L 9.28125 47.703125 
L 2.6875 47.703125 
L 2.6875 54.6875 
L 9.28125 54.6875 
L 9.28125 70.21875 
z
" id="DejaVuSans-74"/>
     <path d="M 34.28125 27.484375 
Q 23.390625 27.484375 19.1875 25 
Q 14.984375 22.515625 14.984375 16.5 
Q 14.984375 11.71875 18.140625 8.90625 
Q 21.296875 6.109375 26.703125 6.109375 
Q 34.1875 6.109375 38.703125 11.40625 
Q 43.21875 16.703125 43.21875 25.484375 
L 43.21875 27.484375 
z
M 52.203125 31.203125 
L 52.203125 0 
L 43.21875 0 
L 43.21875 8.296875 
Q 40.140625 3.328125 35.546875 0.953125 
Q 30.953125 -1.421875 24.3125 -1.421875 
Q 15.921875 -1.421875 10.953125 3.296875 
Q 6 8.015625 6 15.921875 
Q 6 25.140625 12.171875 29.828125 
Q 18.359375 34.515625 30.609375 34.515625 
L 43.21875 34.515625 
L 43.21875 35.40625 
Q 43.21875 41.609375 39.140625 45 
Q 35.0625 48.390625 27.6875 48.390625 
Q 23 48.390625 18.546875 47.265625 
Q 14.109375 46.140625 10.015625 43.890625 
L 10.015625 52.203125 
Q 14.9375 54.109375 19.578125 55.046875 
Q 24.21875 56 28.609375 56 
Q 40.484375 56 46.34375 49.84375 
Q 52.203125 43.703125 52.203125 31.203125 
z
" id="DejaVuSans-61"/>
     <path d="M 18.109375 8.203125 
L 18.109375 -20.796875 
L 9.078125 -20.796875 
L 9.078125 54.6875 
L 18.109375 54.6875 
L 18.109375 46.390625 
Q 20.953125 51.265625 25.265625 53.625 
Q 29.59375 56 35.59375 56 
Q 45.5625 56 51.78125 48.09375 
Q 58.015625 40.1875 58.015625 27.296875 
Q 58.015625 14.40625 51.78125 6.484375 
Q 45.5625 -1.421875 35.59375 -1.421875 
Q 29.59375 -1.421875 25.265625 0.953125 
Q 20.953125 3.328125 18.109375 8.203125 
z
M 48.6875 27.296875 
Q 48.6875 37.203125 44.609375 42.84375 
Q 40.53125 48.484375 33.40625 48.484375 
Q 26.265625 48.484375 22.1875 42.84375 
Q 18.109375 37.203125 18.109375 27.296875 
Q 18.109375 17.390625 22.1875 11.75 
Q 26.265625 6.109375 33.40625 6.109375 
Q 40.53125 6.109375 44.609375 11.75 
Q 48.6875 17.390625 48.6875 27.296875 
z
" id="DejaVuSans-70"/>
     <path d="M 9.421875 75.984375 
L 18.40625 75.984375 
L 18.40625 0 
L 9.421875 0 
z
" id="DejaVuSans-6c"/>
    </defs>
    <g transform="translate(414.848125 18.33375)scale(0.12 -0.12)">
     <use xlink:href="#DejaVuSans-15a"/>
     <use x="63.476562" xlink:href="#DejaVuSans-72"/>
     <use x="104.558594" xlink:href="#DejaVuSans-65"/>
     <use x="166.082031" xlink:href="#DejaVuSans-64"/>
     <use x="229.558594" xlink:href="#DejaVuSans-6e"/>
     <use x="292.9375" xlink:href="#DejaVuSans-69"/>
     <use x="320.720703" xlink:href="#DejaVuSans-20"/>
     <use x="352.507812" xlink:href="#DejaVuSans-62"/>
     <use x="415.984375" xlink:href="#DejaVuSans-75"/>
     <use x="479.363281" xlink:href="#DejaVuSans-64"/>
     <use x="542.839844" xlink:href="#DejaVuSans-17c"/>
     <use x="595.330078" xlink:href="#DejaVuSans-65"/>
     <use x="656.853516" xlink:href="#DejaVuSans-74"/>
     <use x="696.0625" xlink:href="#DejaVuSans-20"/>
     <use x="727.849609" xlink:href="#DejaVuSans-6e"/>
     <use x="791.228516" xlink:href="#DejaVuSans-61"/>
     <use x="852.507812" xlink:href="#DejaVuSans-20"/>
     <use x="884.294922" xlink:href="#DejaVuSans-70"/>
     <use x="947.771484" xlink:href="#DejaVuSans-61"/>
     <use x="1009.050781" xlink:href="#DejaVuSans-6e"/>
     <use x="1072.429688" xlink:href="#DejaVuSans-65"/>
     <use x="1133.953125" xlink:href="#DejaVuSans-6c"/>
    </g>
   </g>
  </g>
 </g>
 <defs>
  <clipPath id="p670b8eb0c4">
   <rect height="434.88" width="837" x="66.053125" y="24.33375"/>
  </clipPath>
 </defs>
</svg>
