<?xml version="1.0" encoding="utf-8" standalone="no"?>
<!DOCTYPE svg PUBLIC "-//W3C//DTD SVG 1.1//EN"
  "http://www.w3.org/Graphics/SVG/1.1/DTD/svg11.dtd">
<!-- Created with matplotlib (http://matplotlib.org/) -->
<svg height="310.9426pt" version="1.1" viewBox="0 0 491.848828 310.9426" width="491.848828pt" xmlns="http://www.w3.org/2000/svg" xmlns:xlink="http://www.w3.org/1999/xlink">
 <defs>
  <style type="text/css">
*{stroke-linecap:butt;stroke-linejoin:round;}
  </style>
 </defs>
 <g id="figure_1">
  <g id="patch_1">
   <path d="M -0 310.9426 
L 491.848828 310.9426 
L 491.848828 0 
L -0 0 
z
" style="fill:#ffffff;"/>
  </g>
  <g id="axes_1">
   <g id="matplotlib.axis_1"/>
   <g id="matplotlib.axis_2"/>
   <g id="patch_2">
    <path d="M 216.451439 53.736735 
C 192.527179 53.736735 169.198322 61.261612 149.78321 75.241013 
C 130.368098 89.220413 115.833099 108.958527 108.245699 131.647765 
L 216.451439 167.832331 
L 216.451439 53.736735 
z
" style="fill:#44160f;opacity:0.5;stroke:#44160f;stroke-linejoin:miter;stroke-width:0.5;"/>
   </g>
   <g id="patch_3">
    <path d="M 101.687548 140.984184 
C 93.895761 164.28462 93.834629 189.490066 101.513303 212.828023 
C 109.191977 236.165979 124.207251 256.410974 144.311787 270.532938 
C 164.416323 284.654902 188.554437 291.912293 213.113375 291.218897 
C 237.672313 290.525501 261.362491 281.917728 280.638197 266.683905 
L 209.893289 177.16875 
L 101.687548 140.984184 
z
" style="fill:#102939;opacity:0.5;stroke:#102939;stroke-linejoin:miter;stroke-width:0.5;"/>
   </g>
   <g id="patch_4">
    <path d="M 287.196347 257.347486 
C 305.787917 242.654344 319.348142 222.527928 325.983219 199.779069 
C 332.618297 177.030209 332.004263 152.769639 324.226873 130.385558 
C 316.449483 108.001478 301.888475 88.586809 282.57742 74.852981 
C 263.266366 61.119153 240.148144 53.736731 216.451417 53.736735 
L 216.451439 167.832331 
L 287.196347 257.347486 
z
" style="fill:#2e2b40;opacity:0.5;stroke:#2e2b40;stroke-linejoin:miter;stroke-width:0.5;"/>
   </g>
   <g id="patch_5">
    <path d="M 218.733351 51.454823 
C 194.809091 51.454823 171.480234 58.9797 152.065122 72.959101 
C 132.65001 86.938501 118.115011 106.676615 110.527611 129.365854 
L 218.733351 165.550419 
L 218.733351 51.454823 
z
" style="fill:#e24a33;"/>
   </g>
   <g id="patch_6">
    <path d="M 103.96946 138.702272 
C 96.177673 162.002708 96.116541 187.208154 103.795215 210.546111 
C 111.473889 233.884067 126.489162 254.129062 146.593699 268.251026 
C 166.698235 282.37299 190.836349 289.630381 215.395287 288.936985 
C 239.954225 288.243589 263.644403 279.635816 282.920109 264.401993 
L 212.175201 174.886838 
L 103.96946 138.702272 
z
" style="fill:#348abd;"/>
   </g>
   <g id="patch_7">
    <path d="M 289.478259 255.065574 
C 308.069829 240.372432 321.630054 220.246016 328.265131 197.497157 
C 334.900209 174.748297 334.286175 150.487727 326.508785 128.103646 
C 318.731395 105.719566 304.170387 86.304897 284.859332 72.571069 
C 265.548278 58.837241 242.430056 51.454819 218.733329 51.454823 
L 218.733351 165.550419 
L 289.478259 255.065574 
z
" style="fill:#988ed5;"/>
   </g>
   <g id="text_1">
    <!-- Nauki Humanistyczne - HS -->
    <defs>
     <path d="M 9.8125 72.90625 
L 23.09375 72.90625 
L 55.421875 11.921875 
L 55.421875 72.90625 
L 64.984375 72.90625 
L 64.984375 0 
L 51.703125 0 
L 19.390625 60.984375 
L 19.390625 0 
L 9.8125 0 
z
" id="DejaVuSans-4e"/>
     <path d="M 34.28125 27.484375 
Q 23.390625 27.484375 19.1875 25 
Q 14.984375 22.515625 14.984375 16.5 
Q 14.984375 11.71875 18.140625 8.90625 
Q 21.296875 6.109375 26.703125 6.109375 
Q 34.1875 6.109375 38.703125 11.40625 
Q 43.21875 16.703125 43.21875 25.484375 
L 43.21875 27.484375 
z
M 52.203125 31.203125 
L 52.203125 0 
L 43.21875 0 
L 43.21875 8.296875 
Q 40.140625 3.328125 35.546875 0.953125 
Q 30.953125 -1.421875 24.3125 -1.421875 
Q 15.921875 -1.421875 10.953125 3.296875 
Q 6 8.015625 6 15.921875 
Q 6 25.140625 12.171875 29.828125 
Q 18.359375 34.515625 30.609375 34.515625 
L 43.21875 34.515625 
L 43.21875 35.40625 
Q 43.21875 41.609375 39.140625 45 
Q 35.0625 48.390625 27.6875 48.390625 
Q 23 48.390625 18.546875 47.265625 
Q 14.109375 46.140625 10.015625 43.890625 
L 10.015625 52.203125 
Q 14.9375 54.109375 19.578125 55.046875 
Q 24.21875 56 28.609375 56 
Q 40.484375 56 46.34375 49.84375 
Q 52.203125 43.703125 52.203125 31.203125 
z
" id="DejaVuSans-61"/>
     <path d="M 8.5 21.578125 
L 8.5 54.6875 
L 17.484375 54.6875 
L 17.484375 21.921875 
Q 17.484375 14.15625 20.5 10.265625 
Q 23.53125 6.390625 29.59375 6.390625 
Q 36.859375 6.390625 41.078125 11.03125 
Q 45.3125 15.671875 45.3125 23.6875 
L 45.3125 54.6875 
L 54.296875 54.6875 
L 54.296875 0 
L 45.3125 0 
L 45.3125 8.40625 
Q 42.046875 3.421875 37.71875 1 
Q 33.40625 -1.421875 27.6875 -1.421875 
Q 18.265625 -1.421875 13.375 4.4375 
Q 8.5 10.296875 8.5 21.578125 
z
M 31.109375 56 
z
" id="DejaVuSans-75"/>
     <path d="M 9.078125 75.984375 
L 18.109375 75.984375 
L 18.109375 31.109375 
L 44.921875 54.6875 
L 56.390625 54.6875 
L 27.390625 29.109375 
L 57.625 0 
L 45.90625 0 
L 18.109375 26.703125 
L 18.109375 0 
L 9.078125 0 
z
" id="DejaVuSans-6b"/>
     <path d="M 9.421875 54.6875 
L 18.40625 54.6875 
L 18.40625 0 
L 9.421875 0 
z
M 9.421875 75.984375 
L 18.40625 75.984375 
L 18.40625 64.59375 
L 9.421875 64.59375 
z
" id="DejaVuSans-69"/>
     <path id="DejaVuSans-20"/>
     <path d="M 9.8125 72.90625 
L 19.671875 72.90625 
L 19.671875 43.015625 
L 55.515625 43.015625 
L 55.515625 72.90625 
L 65.375 72.90625 
L 65.375 0 
L 55.515625 0 
L 55.515625 34.71875 
L 19.671875 34.71875 
L 19.671875 0 
L 9.8125 0 
z
" id="DejaVuSans-48"/>
     <path d="M 52 44.1875 
Q 55.375 50.25 60.0625 53.125 
Q 64.75 56 71.09375 56 
Q 79.640625 56 84.28125 50.015625 
Q 88.921875 44.046875 88.921875 33.015625 
L 88.921875 0 
L 79.890625 0 
L 79.890625 32.71875 
Q 79.890625 40.578125 77.09375 44.375 
Q 74.3125 48.1875 68.609375 48.1875 
Q 61.625 48.1875 57.5625 43.546875 
Q 53.515625 38.921875 53.515625 30.90625 
L 53.515625 0 
L 44.484375 0 
L 44.484375 32.71875 
Q 44.484375 40.625 41.703125 44.40625 
Q 38.921875 48.1875 33.109375 48.1875 
Q 26.21875 48.1875 22.15625 43.53125 
Q 18.109375 38.875 18.109375 30.90625 
L 18.109375 0 
L 9.078125 0 
L 9.078125 54.6875 
L 18.109375 54.6875 
L 18.109375 46.1875 
Q 21.1875 51.21875 25.484375 53.609375 
Q 29.78125 56 35.6875 56 
Q 41.65625 56 45.828125 52.96875 
Q 50 49.953125 52 44.1875 
z
" id="DejaVuSans-6d"/>
     <path d="M 54.890625 33.015625 
L 54.890625 0 
L 45.90625 0 
L 45.90625 32.71875 
Q 45.90625 40.484375 42.875 44.328125 
Q 39.84375 48.1875 33.796875 48.1875 
Q 26.515625 48.1875 22.3125 43.546875 
Q 18.109375 38.921875 18.109375 30.90625 
L 18.109375 0 
L 9.078125 0 
L 9.078125 54.6875 
L 18.109375 54.6875 
L 18.109375 46.1875 
Q 21.34375 51.125 25.703125 53.5625 
Q 30.078125 56 35.796875 56 
Q 45.21875 56 50.046875 50.171875 
Q 54.890625 44.34375 54.890625 33.015625 
z
" id="DejaVuSans-6e"/>
     <path d="M 44.28125 53.078125 
L 44.28125 44.578125 
Q 40.484375 46.53125 36.375 47.5 
Q 32.28125 48.484375 27.875 48.484375 
Q 21.1875 48.484375 17.84375 46.4375 
Q 14.5 44.390625 14.5 40.28125 
Q 14.5 37.15625 16.890625 35.375 
Q 19.28125 33.59375 26.515625 31.984375 
L 29.59375 31.296875 
Q 39.15625 29.25 43.1875 25.515625 
Q 47.21875 21.78125 47.21875 15.09375 
Q 47.21875 7.46875 41.1875 3.015625 
Q 35.15625 -1.421875 24.609375 -1.421875 
Q 20.21875 -1.421875 15.453125 -0.5625 
Q 10.6875 0.296875 5.421875 2 
L 5.421875 11.28125 
Q 10.40625 8.6875 15.234375 7.390625 
Q 20.0625 6.109375 24.8125 6.109375 
Q 31.15625 6.109375 34.5625 8.28125 
Q 37.984375 10.453125 37.984375 14.40625 
Q 37.984375 18.0625 35.515625 20.015625 
Q 33.0625 21.96875 24.703125 23.78125 
L 21.578125 24.515625 
Q 13.234375 26.265625 9.515625 29.90625 
Q 5.8125 33.546875 5.8125 39.890625 
Q 5.8125 47.609375 11.28125 51.796875 
Q 16.75 56 26.8125 56 
Q 31.78125 56 36.171875 55.265625 
Q 40.578125 54.546875 44.28125 53.078125 
z
" id="DejaVuSans-73"/>
     <path d="M 18.3125 70.21875 
L 18.3125 54.6875 
L 36.8125 54.6875 
L 36.8125 47.703125 
L 18.3125 47.703125 
L 18.3125 18.015625 
Q 18.3125 11.328125 20.140625 9.421875 
Q 21.96875 7.515625 27.59375 7.515625 
L 36.8125 7.515625 
L 36.8125 0 
L 27.59375 0 
Q 17.1875 0 13.234375 3.875 
Q 9.28125 7.765625 9.28125 18.015625 
L 9.28125 47.703125 
L 2.6875 47.703125 
L 2.6875 54.6875 
L 9.28125 54.6875 
L 9.28125 70.21875 
z
" id="DejaVuSans-74"/>
     <path d="M 32.171875 -5.078125 
Q 28.375 -14.84375 24.75 -17.8125 
Q 21.140625 -20.796875 15.09375 -20.796875 
L 7.90625 -20.796875 
L 7.90625 -13.28125 
L 13.1875 -13.28125 
Q 16.890625 -13.28125 18.9375 -11.515625 
Q 21 -9.765625 23.484375 -3.21875 
L 25.09375 0.875 
L 2.984375 54.6875 
L 12.5 54.6875 
L 29.59375 11.921875 
L 46.6875 54.6875 
L 56.203125 54.6875 
z
" id="DejaVuSans-79"/>
     <path d="M 48.78125 52.59375 
L 48.78125 44.1875 
Q 44.96875 46.296875 41.140625 47.34375 
Q 37.3125 48.390625 33.40625 48.390625 
Q 24.65625 48.390625 19.8125 42.84375 
Q 14.984375 37.3125 14.984375 27.296875 
Q 14.984375 17.28125 19.8125 11.734375 
Q 24.65625 6.203125 33.40625 6.203125 
Q 37.3125 6.203125 41.140625 7.25 
Q 44.96875 8.296875 48.78125 10.40625 
L 48.78125 2.09375 
Q 45.015625 0.34375 40.984375 -0.53125 
Q 36.96875 -1.421875 32.421875 -1.421875 
Q 20.0625 -1.421875 12.78125 6.34375 
Q 5.515625 14.109375 5.515625 27.296875 
Q 5.515625 40.671875 12.859375 48.328125 
Q 20.21875 56 33.015625 56 
Q 37.15625 56 41.109375 55.140625 
Q 45.0625 54.296875 48.78125 52.59375 
z
" id="DejaVuSans-63"/>
     <path d="M 5.515625 54.6875 
L 48.1875 54.6875 
L 48.1875 46.484375 
L 14.40625 7.171875 
L 48.1875 7.171875 
L 48.1875 0 
L 4.296875 0 
L 4.296875 8.203125 
L 38.09375 47.515625 
L 5.515625 47.515625 
z
" id="DejaVuSans-7a"/>
     <path d="M 56.203125 29.59375 
L 56.203125 25.203125 
L 14.890625 25.203125 
Q 15.484375 15.921875 20.484375 11.0625 
Q 25.484375 6.203125 34.421875 6.203125 
Q 39.59375 6.203125 44.453125 7.46875 
Q 49.3125 8.734375 54.109375 11.28125 
L 54.109375 2.78125 
Q 49.265625 0.734375 44.1875 -0.34375 
Q 39.109375 -1.421875 33.890625 -1.421875 
Q 20.796875 -1.421875 13.15625 6.1875 
Q 5.515625 13.8125 5.515625 26.8125 
Q 5.515625 40.234375 12.765625 48.109375 
Q 20.015625 56 32.328125 56 
Q 43.359375 56 49.78125 48.890625 
Q 56.203125 41.796875 56.203125 29.59375 
z
M 47.21875 32.234375 
Q 47.125 39.59375 43.09375 43.984375 
Q 39.0625 48.390625 32.421875 48.390625 
Q 24.90625 48.390625 20.390625 44.140625 
Q 15.875 39.890625 15.1875 32.171875 
z
" id="DejaVuSans-65"/>
     <path d="M 4.890625 31.390625 
L 31.203125 31.390625 
L 31.203125 23.390625 
L 4.890625 23.390625 
z
" id="DejaVuSans-2d"/>
     <path d="M 53.515625 70.515625 
L 53.515625 60.890625 
Q 47.90625 63.578125 42.921875 64.890625 
Q 37.9375 66.21875 33.296875 66.21875 
Q 25.25 66.21875 20.875 63.09375 
Q 16.5 59.96875 16.5 54.203125 
Q 16.5 49.359375 19.40625 46.890625 
Q 22.3125 44.4375 30.421875 42.921875 
L 36.375 41.703125 
Q 47.40625 39.59375 52.65625 34.296875 
Q 57.90625 29 57.90625 20.125 
Q 57.90625 9.515625 50.796875 4.046875 
Q 43.703125 -1.421875 29.984375 -1.421875 
Q 24.8125 -1.421875 18.96875 -0.25 
Q 13.140625 0.921875 6.890625 3.21875 
L 6.890625 13.375 
Q 12.890625 10.015625 18.65625 8.296875 
Q 24.421875 6.59375 29.984375 6.59375 
Q 38.421875 6.59375 43.015625 9.90625 
Q 47.609375 13.234375 47.609375 19.390625 
Q 47.609375 24.75 44.3125 27.78125 
Q 41.015625 30.8125 33.5 32.328125 
L 27.484375 33.5 
Q 16.453125 35.6875 11.515625 40.375 
Q 6.59375 45.0625 6.59375 53.421875 
Q 6.59375 63.09375 13.40625 68.65625 
Q 20.21875 74.21875 32.171875 74.21875 
Q 37.3125 74.21875 42.625 73.28125 
Q 47.953125 72.359375 53.515625 70.515625 
z
" id="DejaVuSans-53"/>
    </defs>
    <g transform="translate(12.743612 66.459344)scale(0.1 -0.1)">
     <use xlink:href="#DejaVuSans-4e"/>
     <use x="74.804688" xlink:href="#DejaVuSans-61"/>
     <use x="136.083984" xlink:href="#DejaVuSans-75"/>
     <use x="199.462891" xlink:href="#DejaVuSans-6b"/>
     <use x="257.373047" xlink:href="#DejaVuSans-69"/>
     <use x="285.15625" xlink:href="#DejaVuSans-20"/>
     <use x="316.943359" xlink:href="#DejaVuSans-48"/>
     <use x="392.138672" xlink:href="#DejaVuSans-75"/>
     <use x="455.517578" xlink:href="#DejaVuSans-6d"/>
     <use x="552.929688" xlink:href="#DejaVuSans-61"/>
     <use x="614.208984" xlink:href="#DejaVuSans-6e"/>
     <use x="677.587891" xlink:href="#DejaVuSans-69"/>
     <use x="705.371094" xlink:href="#DejaVuSans-73"/>
     <use x="757.470703" xlink:href="#DejaVuSans-74"/>
     <use x="796.679688" xlink:href="#DejaVuSans-79"/>
     <use x="855.859375" xlink:href="#DejaVuSans-63"/>
     <use x="910.839844" xlink:href="#DejaVuSans-7a"/>
     <use x="963.330078" xlink:href="#DejaVuSans-6e"/>
     <use x="1026.708984" xlink:href="#DejaVuSans-65"/>
     <use x="1088.232422" xlink:href="#DejaVuSans-20"/>
     <use x="1120.019531" xlink:href="#DejaVuSans-2d"/>
     <use x="1156.103516" xlink:href="#DejaVuSans-20"/>
     <use x="1187.890625" xlink:href="#DejaVuSans-48"/>
     <use x="1263.085938" xlink:href="#DejaVuSans-53"/>
    </g>
   </g>
   <g id="text_2">
    <!-- 19.9% -->
    <defs>
     <path d="M 12.40625 8.296875 
L 28.515625 8.296875 
L 28.515625 63.921875 
L 10.984375 60.40625 
L 10.984375 69.390625 
L 28.421875 72.90625 
L 38.28125 72.90625 
L 38.28125 8.296875 
L 54.390625 8.296875 
L 54.390625 0 
L 12.40625 0 
z
" id="DejaVuSans-31"/>
     <path d="M 10.984375 1.515625 
L 10.984375 10.5 
Q 14.703125 8.734375 18.5 7.8125 
Q 22.3125 6.890625 25.984375 6.890625 
Q 35.75 6.890625 40.890625 13.453125 
Q 46.046875 20.015625 46.78125 33.40625 
Q 43.953125 29.203125 39.59375 26.953125 
Q 35.25 24.703125 29.984375 24.703125 
Q 19.046875 24.703125 12.671875 31.3125 
Q 6.296875 37.9375 6.296875 49.421875 
Q 6.296875 60.640625 12.9375 67.421875 
Q 19.578125 74.21875 30.609375 74.21875 
Q 43.265625 74.21875 49.921875 64.515625 
Q 56.59375 54.828125 56.59375 36.375 
Q 56.59375 19.140625 48.40625 8.859375 
Q 40.234375 -1.421875 26.421875 -1.421875 
Q 22.703125 -1.421875 18.890625 -0.6875 
Q 15.09375 0.046875 10.984375 1.515625 
z
M 30.609375 32.421875 
Q 37.25 32.421875 41.125 36.953125 
Q 45.015625 41.5 45.015625 49.421875 
Q 45.015625 57.28125 41.125 61.84375 
Q 37.25 66.40625 30.609375 66.40625 
Q 23.96875 66.40625 20.09375 61.84375 
Q 16.21875 57.28125 16.21875 49.421875 
Q 16.21875 41.5 20.09375 36.953125 
Q 23.96875 32.421875 30.609375 32.421875 
z
" id="DejaVuSans-39"/>
     <path d="M 10.6875 12.40625 
L 21 12.40625 
L 21 0 
L 10.6875 0 
z
" id="DejaVuSans-2e"/>
     <path d="M 72.703125 32.078125 
Q 68.453125 32.078125 66.03125 28.46875 
Q 63.625 24.859375 63.625 18.40625 
Q 63.625 12.0625 66.03125 8.421875 
Q 68.453125 4.78125 72.703125 4.78125 
Q 76.859375 4.78125 79.265625 8.421875 
Q 81.6875 12.0625 81.6875 18.40625 
Q 81.6875 24.8125 79.265625 28.4375 
Q 76.859375 32.078125 72.703125 32.078125 
z
M 72.703125 38.28125 
Q 80.421875 38.28125 84.953125 32.90625 
Q 89.5 27.546875 89.5 18.40625 
Q 89.5 9.28125 84.9375 3.921875 
Q 80.375 -1.421875 72.703125 -1.421875 
Q 64.890625 -1.421875 60.34375 3.921875 
Q 55.8125 9.28125 55.8125 18.40625 
Q 55.8125 27.59375 60.375 32.9375 
Q 64.9375 38.28125 72.703125 38.28125 
z
M 22.3125 68.015625 
Q 18.109375 68.015625 15.6875 64.375 
Q 13.28125 60.75 13.28125 54.390625 
Q 13.28125 47.953125 15.671875 44.328125 
Q 18.0625 40.71875 22.3125 40.71875 
Q 26.5625 40.71875 28.96875 44.328125 
Q 31.390625 47.953125 31.390625 54.390625 
Q 31.390625 60.6875 28.953125 64.34375 
Q 26.515625 68.015625 22.3125 68.015625 
z
M 66.40625 74.21875 
L 74.21875 74.21875 
L 28.609375 -1.421875 
L 20.796875 -1.421875 
z
M 22.3125 74.21875 
Q 30.03125 74.21875 34.609375 68.875 
Q 39.203125 63.53125 39.203125 54.390625 
Q 39.203125 45.171875 34.640625 39.84375 
Q 30.078125 34.515625 22.3125 34.515625 
Q 14.546875 34.515625 10.03125 39.859375 
Q 5.515625 45.21875 5.515625 54.390625 
Q 5.515625 63.484375 10.046875 68.84375 
Q 14.59375 74.21875 22.3125 74.21875 
z
" id="DejaVuSans-25"/>
    </defs>
    <g transform="translate(162.84882 112.755003)scale(0.1 -0.1)">
     <use xlink:href="#DejaVuSans-31"/>
     <use x="63.623047" xlink:href="#DejaVuSans-39"/>
     <use x="127.246094" xlink:href="#DejaVuSans-2e"/>
     <use x="159.033203" xlink:href="#DejaVuSans-39"/>
     <use x="222.65625" xlink:href="#DejaVuSans-25"/>
    </g>
   </g>
   <g id="text_3">
    <!-- Nauki o Ziemi - NZ -->
    <defs>
     <path d="M 30.609375 48.390625 
Q 23.390625 48.390625 19.1875 42.75 
Q 14.984375 37.109375 14.984375 27.296875 
Q 14.984375 17.484375 19.15625 11.84375 
Q 23.34375 6.203125 30.609375 6.203125 
Q 37.796875 6.203125 41.984375 11.859375 
Q 46.1875 17.53125 46.1875 27.296875 
Q 46.1875 37.015625 41.984375 42.703125 
Q 37.796875 48.390625 30.609375 48.390625 
z
M 30.609375 56 
Q 42.328125 56 49.015625 48.375 
Q 55.71875 40.765625 55.71875 27.296875 
Q 55.71875 13.875 49.015625 6.21875 
Q 42.328125 -1.421875 30.609375 -1.421875 
Q 18.84375 -1.421875 12.171875 6.21875 
Q 5.515625 13.875 5.515625 27.296875 
Q 5.515625 40.765625 12.171875 48.375 
Q 18.84375 56 30.609375 56 
z
" id="DejaVuSans-6f"/>
     <path d="M 5.609375 72.90625 
L 62.890625 72.90625 
L 62.890625 65.375 
L 16.796875 8.296875 
L 64.015625 8.296875 
L 64.015625 0 
L 4.5 0 
L 4.5 7.515625 
L 50.59375 64.59375 
L 5.609375 64.59375 
z
" id="DejaVuSans-5a"/>
    </defs>
    <g transform="translate(46.449611 280.34682)scale(0.1 -0.1)">
     <use xlink:href="#DejaVuSans-4e"/>
     <use x="74.804688" xlink:href="#DejaVuSans-61"/>
     <use x="136.083984" xlink:href="#DejaVuSans-75"/>
     <use x="199.462891" xlink:href="#DejaVuSans-6b"/>
     <use x="257.373047" xlink:href="#DejaVuSans-69"/>
     <use x="285.15625" xlink:href="#DejaVuSans-20"/>
     <use x="316.943359" xlink:href="#DejaVuSans-6f"/>
     <use x="378.125" xlink:href="#DejaVuSans-20"/>
     <use x="409.912109" xlink:href="#DejaVuSans-5a"/>
     <use x="478.417969" xlink:href="#DejaVuSans-69"/>
     <use x="506.201172" xlink:href="#DejaVuSans-65"/>
     <use x="567.724609" xlink:href="#DejaVuSans-6d"/>
     <use x="665.136719" xlink:href="#DejaVuSans-69"/>
     <use x="692.919922" xlink:href="#DejaVuSans-20"/>
     <use x="724.707031" xlink:href="#DejaVuSans-2d"/>
     <use x="760.791016" xlink:href="#DejaVuSans-20"/>
     <use x="792.578125" xlink:href="#DejaVuSans-4e"/>
     <use x="867.382812" xlink:href="#DejaVuSans-5a"/>
    </g>
   </g>
   <g id="text_4">
    <!-- 40.8% -->
    <defs>
     <path d="M 37.796875 64.3125 
L 12.890625 25.390625 
L 37.796875 25.390625 
z
M 35.203125 72.90625 
L 47.609375 72.90625 
L 47.609375 25.390625 
L 58.015625 25.390625 
L 58.015625 17.1875 
L 47.609375 17.1875 
L 47.609375 0 
L 37.796875 0 
L 37.796875 17.1875 
L 4.890625 17.1875 
L 4.890625 26.703125 
z
" id="DejaVuSans-34"/>
     <path d="M 31.78125 66.40625 
Q 24.171875 66.40625 20.328125 58.90625 
Q 16.5 51.421875 16.5 36.375 
Q 16.5 21.390625 20.328125 13.890625 
Q 24.171875 6.390625 31.78125 6.390625 
Q 39.453125 6.390625 43.28125 13.890625 
Q 47.125 21.390625 47.125 36.375 
Q 47.125 51.421875 43.28125 58.90625 
Q 39.453125 66.40625 31.78125 66.40625 
z
M 31.78125 74.21875 
Q 44.046875 74.21875 50.515625 64.515625 
Q 56.984375 54.828125 56.984375 36.375 
Q 56.984375 17.96875 50.515625 8.265625 
Q 44.046875 -1.421875 31.78125 -1.421875 
Q 19.53125 -1.421875 13.0625 8.265625 
Q 6.59375 17.96875 6.59375 36.375 
Q 6.59375 54.828125 13.0625 64.515625 
Q 19.53125 74.21875 31.78125 74.21875 
z
" id="DejaVuSans-30"/>
     <path d="M 31.78125 34.625 
Q 24.75 34.625 20.71875 30.859375 
Q 16.703125 27.09375 16.703125 20.515625 
Q 16.703125 13.921875 20.71875 10.15625 
Q 24.75 6.390625 31.78125 6.390625 
Q 38.8125 6.390625 42.859375 10.171875 
Q 46.921875 13.96875 46.921875 20.515625 
Q 46.921875 27.09375 42.890625 30.859375 
Q 38.875 34.625 31.78125 34.625 
z
M 21.921875 38.8125 
Q 15.578125 40.375 12.03125 44.71875 
Q 8.5 49.078125 8.5 55.328125 
Q 8.5 64.0625 14.71875 69.140625 
Q 20.953125 74.21875 31.78125 74.21875 
Q 42.671875 74.21875 48.875 69.140625 
Q 55.078125 64.0625 55.078125 55.328125 
Q 55.078125 49.078125 51.53125 44.71875 
Q 48 40.375 41.703125 38.8125 
Q 48.828125 37.15625 52.796875 32.3125 
Q 56.78125 27.484375 56.78125 20.515625 
Q 56.78125 9.90625 50.3125 4.234375 
Q 43.84375 -1.421875 31.78125 -1.421875 
Q 19.734375 -1.421875 13.25 4.234375 
Q 6.78125 9.90625 6.78125 20.515625 
Q 6.78125 27.484375 10.78125 32.3125 
Q 14.796875 37.15625 21.921875 38.8125 
z
M 18.3125 54.390625 
Q 18.3125 48.734375 21.84375 45.5625 
Q 25.390625 42.390625 31.78125 42.390625 
Q 38.140625 42.390625 41.71875 45.5625 
Q 45.3125 48.734375 45.3125 54.390625 
Q 45.3125 60.0625 41.71875 63.234375 
Q 38.140625 66.40625 31.78125 66.40625 
Q 25.390625 66.40625 21.84375 63.234375 
Q 18.3125 60.0625 18.3125 54.390625 
z
" id="DejaVuSans-38"/>
    </defs>
    <g transform="translate(156.942706 233.664726)scale(0.1 -0.1)">
     <use xlink:href="#DejaVuSans-34"/>
     <use x="63.623047" xlink:href="#DejaVuSans-30"/>
     <use x="127.246094" xlink:href="#DejaVuSans-2e"/>
     <use x="159.033203" xlink:href="#DejaVuSans-38"/>
     <use x="222.65625" xlink:href="#DejaVuSans-25"/>
    </g>
   </g>
   <g id="text_5">
    <!-- Nauki ścisłe i Techniczne - ST -->
    <defs>
     <path d="M 35.015625 80.328125 
L 44.734375 80.328125 
L 28.8125 61.96875 
L 21.34375 61.96875 
z
M 44.28125 53.078125 
L 44.28125 44.578125 
Q 40.484375 46.53125 36.375 47.5 
Q 32.28125 48.484375 27.875 48.484375 
Q 21.1875 48.484375 17.84375 46.4375 
Q 14.5 44.390625 14.5 40.28125 
Q 14.5 37.15625 16.890625 35.375 
Q 19.28125 33.59375 26.515625 31.984375 
L 29.59375 31.296875 
Q 39.15625 29.25 43.1875 25.515625 
Q 47.21875 21.78125 47.21875 15.09375 
Q 47.21875 7.46875 41.1875 3.015625 
Q 35.15625 -1.421875 24.609375 -1.421875 
Q 20.21875 -1.421875 15.453125 -0.5625 
Q 10.6875 0.296875 5.421875 2 
L 5.421875 11.28125 
Q 10.40625 8.6875 15.234375 7.390625 
Q 20.0625 6.109375 24.8125 6.109375 
Q 31.15625 6.109375 34.5625 8.28125 
Q 37.984375 10.453125 37.984375 14.40625 
Q 37.984375 18.0625 35.515625 20.015625 
Q 33.0625 21.96875 24.703125 23.78125 
L 21.578125 24.515625 
Q 13.234375 26.265625 9.515625 29.90625 
Q 5.8125 33.546875 5.8125 39.890625 
Q 5.8125 47.609375 11.28125 51.796875 
Q 16.75 56 26.8125 56 
Q 31.78125 56 36.171875 55.265625 
Q 40.578125 54.546875 44.28125 53.078125 
z
" id="DejaVuSans-15b"/>
     <path d="M 9.71875 75.984375 
L 18.703125 75.984375 
L 18.703125 46.578125 
L 24.8125 50.984375 
L 28.515625 45.796875 
L 18.703125 38.921875 
L 18.703125 0 
L 9.71875 0 
L 9.71875 32.515625 
L 3.71875 28.21875 
L 0.09375 33.40625 
L 9.71875 40.28125 
z
" id="DejaVuSans-142"/>
     <path d="M -0.296875 72.90625 
L 61.375 72.90625 
L 61.375 64.59375 
L 35.5 64.59375 
L 35.5 0 
L 25.59375 0 
L 25.59375 64.59375 
L -0.296875 64.59375 
z
" id="DejaVuSans-54"/>
     <path d="M 54.890625 33.015625 
L 54.890625 0 
L 45.90625 0 
L 45.90625 32.71875 
Q 45.90625 40.484375 42.875 44.328125 
Q 39.84375 48.1875 33.796875 48.1875 
Q 26.515625 48.1875 22.3125 43.546875 
Q 18.109375 38.921875 18.109375 30.90625 
L 18.109375 0 
L 9.078125 0 
L 9.078125 75.984375 
L 18.109375 75.984375 
L 18.109375 46.1875 
Q 21.34375 51.125 25.703125 53.5625 
Q 30.078125 56 35.796875 56 
Q 45.21875 56 50.046875 50.171875 
Q 54.890625 44.34375 54.890625 33.015625 
z
" id="DejaVuSans-68"/>
    </defs>
    <g transform="translate(337.286328 127.118344)scale(0.1 -0.1)">
     <use xlink:href="#DejaVuSans-4e"/>
     <use x="74.804688" xlink:href="#DejaVuSans-61"/>
     <use x="136.083984" xlink:href="#DejaVuSans-75"/>
     <use x="199.462891" xlink:href="#DejaVuSans-6b"/>
     <use x="257.373047" xlink:href="#DejaVuSans-69"/>
     <use x="285.15625" xlink:href="#DejaVuSans-20"/>
     <use x="316.943359" xlink:href="#DejaVuSans-15b"/>
     <use x="369.042969" xlink:href="#DejaVuSans-63"/>
     <use x="424.023438" xlink:href="#DejaVuSans-69"/>
     <use x="451.806641" xlink:href="#DejaVuSans-73"/>
     <use x="503.90625" xlink:href="#DejaVuSans-142"/>
     <use x="532.324219" xlink:href="#DejaVuSans-65"/>
     <use x="593.847656" xlink:href="#DejaVuSans-20"/>
     <use x="625.634766" xlink:href="#DejaVuSans-69"/>
     <use x="653.417969" xlink:href="#DejaVuSans-20"/>
     <use x="685.205078" xlink:href="#DejaVuSans-54"/>
     <use x="746.023438" xlink:href="#DejaVuSans-65"/>
     <use x="807.546875" xlink:href="#DejaVuSans-63"/>
     <use x="862.527344" xlink:href="#DejaVuSans-68"/>
     <use x="925.90625" xlink:href="#DejaVuSans-6e"/>
     <use x="989.285156" xlink:href="#DejaVuSans-69"/>
     <use x="1017.068359" xlink:href="#DejaVuSans-63"/>
     <use x="1072.048828" xlink:href="#DejaVuSans-7a"/>
     <use x="1124.539062" xlink:href="#DejaVuSans-6e"/>
     <use x="1187.917969" xlink:href="#DejaVuSans-65"/>
     <use x="1249.441406" xlink:href="#DejaVuSans-20"/>
     <use x="1281.228516" xlink:href="#DejaVuSans-2d"/>
     <use x="1317.3125" xlink:href="#DejaVuSans-20"/>
     <use x="1349.099609" xlink:href="#DejaVuSans-53"/>
     <use x="1412.576172" xlink:href="#DejaVuSans-54"/>
    </g>
   </g>
   <g id="text_6">
    <!-- 39.4% -->
    <defs>
     <path d="M 40.578125 39.3125 
Q 47.65625 37.796875 51.625 33 
Q 55.609375 28.21875 55.609375 21.1875 
Q 55.609375 10.40625 48.1875 4.484375 
Q 40.765625 -1.421875 27.09375 -1.421875 
Q 22.515625 -1.421875 17.65625 -0.515625 
Q 12.796875 0.390625 7.625 2.203125 
L 7.625 11.71875 
Q 11.71875 9.328125 16.59375 8.109375 
Q 21.484375 6.890625 26.8125 6.890625 
Q 36.078125 6.890625 40.9375 10.546875 
Q 45.796875 14.203125 45.796875 21.1875 
Q 45.796875 27.640625 41.28125 31.265625 
Q 36.765625 34.90625 28.71875 34.90625 
L 20.21875 34.90625 
L 20.21875 43.015625 
L 29.109375 43.015625 
Q 36.375 43.015625 40.234375 45.921875 
Q 44.09375 48.828125 44.09375 54.296875 
Q 44.09375 59.90625 40.109375 62.90625 
Q 36.140625 65.921875 28.71875 65.921875 
Q 24.65625 65.921875 20.015625 65.03125 
Q 15.375 64.15625 9.8125 62.3125 
L 9.8125 71.09375 
Q 15.4375 72.65625 20.34375 73.4375 
Q 25.25 74.21875 29.59375 74.21875 
Q 40.828125 74.21875 47.359375 69.109375 
Q 53.90625 64.015625 53.90625 55.328125 
Q 53.90625 49.265625 50.4375 45.09375 
Q 46.96875 40.921875 40.578125 39.3125 
z
" id="DejaVuSans-33"/>
    </defs>
    <g transform="translate(267.515017 145.841731)scale(0.1 -0.1)">
     <use xlink:href="#DejaVuSans-33"/>
     <use x="63.623047" xlink:href="#DejaVuSans-39"/>
     <use x="127.246094" xlink:href="#DejaVuSans-2e"/>
     <use x="159.033203" xlink:href="#DejaVuSans-34"/>
     <use x="222.65625" xlink:href="#DejaVuSans-25"/>
    </g>
   </g>
   <g id="text_7">
    <!-- Procent pieniędzy jaki przeznaczono przez wszystkie lata  -->
    <defs>
     <path d="M 19.671875 64.796875 
L 19.671875 37.40625 
L 32.078125 37.40625 
Q 38.96875 37.40625 42.71875 40.96875 
Q 46.484375 44.53125 46.484375 51.125 
Q 46.484375 57.671875 42.71875 61.234375 
Q 38.96875 64.796875 32.078125 64.796875 
z
M 9.8125 72.90625 
L 32.078125 72.90625 
Q 44.34375 72.90625 50.609375 67.359375 
Q 56.890625 61.8125 56.890625 51.125 
Q 56.890625 40.328125 50.609375 34.8125 
Q 44.34375 29.296875 32.078125 29.296875 
L 19.671875 29.296875 
L 19.671875 0 
L 9.8125 0 
z
" id="DejaVuSans-50"/>
     <path d="M 41.109375 46.296875 
Q 39.59375 47.171875 37.8125 47.578125 
Q 36.03125 48 33.890625 48 
Q 26.265625 48 22.1875 43.046875 
Q 18.109375 38.09375 18.109375 28.8125 
L 18.109375 0 
L 9.078125 0 
L 9.078125 54.6875 
L 18.109375 54.6875 
L 18.109375 46.1875 
Q 20.953125 51.171875 25.484375 53.578125 
Q 30.03125 56 36.53125 56 
Q 37.453125 56 38.578125 55.875 
Q 39.703125 55.765625 41.0625 55.515625 
z
" id="DejaVuSans-72"/>
     <path d="M 18.109375 8.203125 
L 18.109375 -20.796875 
L 9.078125 -20.796875 
L 9.078125 54.6875 
L 18.109375 54.6875 
L 18.109375 46.390625 
Q 20.953125 51.265625 25.265625 53.625 
Q 29.59375 56 35.59375 56 
Q 45.5625 56 51.78125 48.09375 
Q 58.015625 40.1875 58.015625 27.296875 
Q 58.015625 14.40625 51.78125 6.484375 
Q 45.5625 -1.421875 35.59375 -1.421875 
Q 29.59375 -1.421875 25.265625 0.953125 
Q 20.953125 3.328125 18.109375 8.203125 
z
M 48.6875 27.296875 
Q 48.6875 37.203125 44.609375 42.84375 
Q 40.53125 48.484375 33.40625 48.484375 
Q 26.265625 48.484375 22.1875 42.84375 
Q 18.109375 37.203125 18.109375 27.296875 
Q 18.109375 17.390625 22.1875 11.75 
Q 26.265625 6.109375 33.40625 6.109375 
Q 40.53125 6.109375 44.609375 11.75 
Q 48.6875 17.390625 48.6875 27.296875 
z
" id="DejaVuSans-70"/>
     <path d="M 56.203125 29.59375 
L 56.203125 25.203125 
L 14.890625 25.203125 
Q 15.484375 15.921875 20.484375 11.0625 
Q 25.484375 6.203125 34.421875 6.203125 
Q 39.59375 6.203125 44.453125 7.46875 
Q 49.3125 8.734375 54.109375 11.28125 
L 54.109375 2.78125 
Q 49.265625 0.734375 44.1875 -0.34375 
Q 39.109375 -1.421875 33.890625 -1.421875 
Q 20.796875 -1.421875 13.15625 6.1875 
Q 5.515625 13.8125 5.515625 26.8125 
Q 5.515625 40.234375 12.765625 48.109375 
Q 20.015625 56 32.328125 56 
Q 43.359375 56 49.78125 48.890625 
Q 56.203125 41.796875 56.203125 29.59375 
z
M 47.21875 32.234375 
Q 47.125 39.59375 43.09375 43.984375 
Q 39.0625 48.390625 32.421875 48.390625 
Q 24.90625 48.390625 20.390625 44.140625 
Q 15.875 39.890625 15.1875 32.171875 
z
M 39.84375 0 
L 45.65625 0 
Q 43.453125 -2.984375 42.40625 -5.125 
Q 41.359375 -7.28125 41.359375 -8.796875 
Q 41.359375 -11.03125 42.703125 -12.15625 
Q 44.046875 -13.28125 46.6875 -13.28125 
Q 48.25 -13.28125 49.75 -12.90625 
Q 51.265625 -12.546875 52.78125 -11.8125 
L 52.78125 -18.3125 
Q 50.921875 -18.796875 49.265625 -19.03125 
Q 47.609375 -19.28125 46.140625 -19.28125 
Q 40.1875 -19.28125 37.375 -17.15625 
Q 34.578125 -15.046875 34.578125 -10.5 
Q 34.578125 -8.15625 35.859375 -5.59375 
Q 37.15625 -3.03125 39.84375 0 
z
" id="DejaVuSans-119"/>
     <path d="M 45.40625 46.390625 
L 45.40625 75.984375 
L 54.390625 75.984375 
L 54.390625 0 
L 45.40625 0 
L 45.40625 8.203125 
Q 42.578125 3.328125 38.25 0.953125 
Q 33.9375 -1.421875 27.875 -1.421875 
Q 17.96875 -1.421875 11.734375 6.484375 
Q 5.515625 14.40625 5.515625 27.296875 
Q 5.515625 40.1875 11.734375 48.09375 
Q 17.96875 56 27.875 56 
Q 33.9375 56 38.25 53.625 
Q 42.578125 51.265625 45.40625 46.390625 
z
M 14.796875 27.296875 
Q 14.796875 17.390625 18.875 11.75 
Q 22.953125 6.109375 30.078125 6.109375 
Q 37.203125 6.109375 41.296875 11.75 
Q 45.40625 17.390625 45.40625 27.296875 
Q 45.40625 37.203125 41.296875 42.84375 
Q 37.203125 48.484375 30.078125 48.484375 
Q 22.953125 48.484375 18.875 42.84375 
Q 14.796875 37.203125 14.796875 27.296875 
z
" id="DejaVuSans-64"/>
     <path d="M 9.421875 54.6875 
L 18.40625 54.6875 
L 18.40625 -0.984375 
Q 18.40625 -11.421875 14.421875 -16.109375 
Q 10.453125 -20.796875 1.609375 -20.796875 
L -1.8125 -20.796875 
L -1.8125 -13.1875 
L 0.59375 -13.1875 
Q 5.71875 -13.1875 7.5625 -10.8125 
Q 9.421875 -8.453125 9.421875 -0.984375 
z
M 9.421875 75.984375 
L 18.40625 75.984375 
L 18.40625 64.59375 
L 9.421875 64.59375 
z
" id="DejaVuSans-6a"/>
     <path d="M 4.203125 54.6875 
L 13.1875 54.6875 
L 24.421875 12.015625 
L 35.59375 54.6875 
L 46.1875 54.6875 
L 57.421875 12.015625 
L 68.609375 54.6875 
L 77.59375 54.6875 
L 63.28125 0 
L 52.6875 0 
L 40.921875 44.828125 
L 29.109375 0 
L 18.5 0 
z
" id="DejaVuSans-77"/>
     <path d="M 9.421875 75.984375 
L 18.40625 75.984375 
L 18.40625 0 
L 9.421875 0 
z
" id="DejaVuSans-6c"/>
    </defs>
    <g transform="translate(7.2 18.14175)scale(0.144 -0.144)">
     <use xlink:href="#DejaVuSans-50"/>
     <use x="60.287109" xlink:href="#DejaVuSans-72"/>
     <use x="101.369141" xlink:href="#DejaVuSans-6f"/>
     <use x="162.550781" xlink:href="#DejaVuSans-63"/>
     <use x="217.53125" xlink:href="#DejaVuSans-65"/>
     <use x="279.054688" xlink:href="#DejaVuSans-6e"/>
     <use x="342.433594" xlink:href="#DejaVuSans-74"/>
     <use x="381.642578" xlink:href="#DejaVuSans-20"/>
     <use x="413.429688" xlink:href="#DejaVuSans-70"/>
     <use x="476.90625" xlink:href="#DejaVuSans-69"/>
     <use x="504.689453" xlink:href="#DejaVuSans-65"/>
     <use x="566.212891" xlink:href="#DejaVuSans-6e"/>
     <use x="629.591797" xlink:href="#DejaVuSans-69"/>
     <use x="657.375" xlink:href="#DejaVuSans-119"/>
     <use x="718.898438" xlink:href="#DejaVuSans-64"/>
     <use x="782.375" xlink:href="#DejaVuSans-7a"/>
     <use x="834.865234" xlink:href="#DejaVuSans-79"/>
     <use x="894.044922" xlink:href="#DejaVuSans-20"/>
     <use x="925.832031" xlink:href="#DejaVuSans-6a"/>
     <use x="953.615234" xlink:href="#DejaVuSans-61"/>
     <use x="1014.894531" xlink:href="#DejaVuSans-6b"/>
     <use x="1072.804688" xlink:href="#DejaVuSans-69"/>
     <use x="1100.587891" xlink:href="#DejaVuSans-20"/>
     <use x="1132.375" xlink:href="#DejaVuSans-70"/>
     <use x="1195.851562" xlink:href="#DejaVuSans-72"/>
     <use x="1236.964844" xlink:href="#DejaVuSans-7a"/>
     <use x="1289.455078" xlink:href="#DejaVuSans-65"/>
     <use x="1350.978516" xlink:href="#DejaVuSans-7a"/>
     <use x="1403.46875" xlink:href="#DejaVuSans-6e"/>
     <use x="1466.847656" xlink:href="#DejaVuSans-61"/>
     <use x="1528.126953" xlink:href="#DejaVuSans-63"/>
     <use x="1583.107422" xlink:href="#DejaVuSans-7a"/>
     <use x="1635.597656" xlink:href="#DejaVuSans-6f"/>
     <use x="1696.779297" xlink:href="#DejaVuSans-6e"/>
     <use x="1760.158203" xlink:href="#DejaVuSans-6f"/>
     <use x="1821.339844" xlink:href="#DejaVuSans-20"/>
     <use x="1853.126953" xlink:href="#DejaVuSans-70"/>
     <use x="1916.603516" xlink:href="#DejaVuSans-72"/>
     <use x="1957.716797" xlink:href="#DejaVuSans-7a"/>
     <use x="2010.207031" xlink:href="#DejaVuSans-65"/>
     <use x="2071.730469" xlink:href="#DejaVuSans-7a"/>
     <use x="2124.220703" xlink:href="#DejaVuSans-20"/>
     <use x="2156.007812" xlink:href="#DejaVuSans-77"/>
     <use x="2237.794922" xlink:href="#DejaVuSans-73"/>
     <use x="2289.894531" xlink:href="#DejaVuSans-7a"/>
     <use x="2342.384766" xlink:href="#DejaVuSans-79"/>
     <use x="2401.564453" xlink:href="#DejaVuSans-73"/>
     <use x="2453.664062" xlink:href="#DejaVuSans-74"/>
     <use x="2492.873047" xlink:href="#DejaVuSans-6b"/>
     <use x="2550.783203" xlink:href="#DejaVuSans-69"/>
     <use x="2578.566406" xlink:href="#DejaVuSans-65"/>
     <use x="2640.089844" xlink:href="#DejaVuSans-20"/>
     <use x="2671.876953" xlink:href="#DejaVuSans-6c"/>
     <use x="2699.660156" xlink:href="#DejaVuSans-61"/>
     <use x="2760.939453" xlink:href="#DejaVuSans-74"/>
     <use x="2800.148438" xlink:href="#DejaVuSans-61"/>
     <use x="2861.427734" xlink:href="#DejaVuSans-20"/>
    </g>
    <!--  na poszczególne kategorie -->
    <defs>
     <path d="M 45.40625 27.984375 
Q 45.40625 37.75 41.375 43.109375 
Q 37.359375 48.484375 30.078125 48.484375 
Q 22.859375 48.484375 18.828125 43.109375 
Q 14.796875 37.75 14.796875 27.984375 
Q 14.796875 18.265625 18.828125 12.890625 
Q 22.859375 7.515625 30.078125 7.515625 
Q 37.359375 7.515625 41.375 12.890625 
Q 45.40625 18.265625 45.40625 27.984375 
z
M 54.390625 6.78125 
Q 54.390625 -7.171875 48.1875 -13.984375 
Q 42 -20.796875 29.203125 -20.796875 
Q 24.46875 -20.796875 20.265625 -20.09375 
Q 16.0625 -19.390625 12.109375 -17.921875 
L 12.109375 -9.1875 
Q 16.0625 -11.328125 19.921875 -12.34375 
Q 23.78125 -13.375 27.78125 -13.375 
Q 36.625 -13.375 41.015625 -8.765625 
Q 45.40625 -4.15625 45.40625 5.171875 
L 45.40625 9.625 
Q 42.625 4.78125 38.28125 2.390625 
Q 33.9375 0 27.875 0 
Q 17.828125 0 11.671875 7.65625 
Q 5.515625 15.328125 5.515625 27.984375 
Q 5.515625 40.671875 11.671875 48.328125 
Q 17.828125 56 27.875 56 
Q 33.9375 56 38.28125 53.609375 
Q 42.625 51.21875 45.40625 46.390625 
L 45.40625 54.6875 
L 54.390625 54.6875 
z
" id="DejaVuSans-67"/>
     <path d="M 30.609375 48.390625 
Q 23.390625 48.390625 19.1875 42.75 
Q 14.984375 37.109375 14.984375 27.296875 
Q 14.984375 17.484375 19.15625 11.84375 
Q 23.34375 6.203125 30.609375 6.203125 
Q 37.796875 6.203125 41.984375 11.859375 
Q 46.1875 17.53125 46.1875 27.296875 
Q 46.1875 37.015625 41.984375 42.703125 
Q 37.796875 48.390625 30.609375 48.390625 
z
M 30.609375 56 
Q 42.328125 56 49.015625 48.375 
Q 55.71875 40.765625 55.71875 27.296875 
Q 55.71875 13.875 49.015625 6.21875 
Q 42.328125 -1.421875 30.609375 -1.421875 
Q 18.84375 -1.421875 12.171875 6.21875 
Q 5.515625 13.875 5.515625 27.296875 
Q 5.515625 40.765625 12.171875 48.375 
Q 18.84375 56 30.609375 56 
z
M 37.40625 79.984375 
L 47.125 79.984375 
L 31.203125 61.625 
L 23.734375 61.625 
z
" id="DejaVuSans-f3"/>
    </defs>
    <g transform="translate(116.8245 34.9578)scale(0.144 -0.144)">
     <use xlink:href="#DejaVuSans-20"/>
     <use x="31.787109" xlink:href="#DejaVuSans-6e"/>
     <use x="95.166016" xlink:href="#DejaVuSans-61"/>
     <use x="156.445312" xlink:href="#DejaVuSans-20"/>
     <use x="188.232422" xlink:href="#DejaVuSans-70"/>
     <use x="251.708984" xlink:href="#DejaVuSans-6f"/>
     <use x="312.890625" xlink:href="#DejaVuSans-73"/>
     <use x="364.990234" xlink:href="#DejaVuSans-7a"/>
     <use x="417.480469" xlink:href="#DejaVuSans-63"/>
     <use x="472.460938" xlink:href="#DejaVuSans-7a"/>
     <use x="524.951172" xlink:href="#DejaVuSans-65"/>
     <use x="586.474609" xlink:href="#DejaVuSans-67"/>
     <use x="649.951172" xlink:href="#DejaVuSans-f3"/>
     <use x="711.132812" xlink:href="#DejaVuSans-6c"/>
     <use x="738.916016" xlink:href="#DejaVuSans-6e"/>
     <use x="802.294922" xlink:href="#DejaVuSans-65"/>
     <use x="863.818359" xlink:href="#DejaVuSans-20"/>
     <use x="895.605469" xlink:href="#DejaVuSans-6b"/>
     <use x="953.5" xlink:href="#DejaVuSans-61"/>
     <use x="1014.779297" xlink:href="#DejaVuSans-74"/>
     <use x="1053.988281" xlink:href="#DejaVuSans-65"/>
     <use x="1115.511719" xlink:href="#DejaVuSans-67"/>
     <use x="1178.988281" xlink:href="#DejaVuSans-6f"/>
     <use x="1240.169922" xlink:href="#DejaVuSans-72"/>
     <use x="1281.283203" xlink:href="#DejaVuSans-69"/>
     <use x="1309.066406" xlink:href="#DejaVuSans-65"/>
    </g>
   </g>
  </g>
 </g>
</svg>
